<svg aria-hidden="true" style="position: absolute; width: 0; height: 0; overflow: hidden;" version="1.1" xmlns="http://www.w3.org/2000/svg" xmlns:xlink="http://www.w3.org/1999/xlink">
<defs>

<symbol id="icon-github" viewBox="0 0 32 32">
<path d="M16 0c-8.788 0-16 7.212-16 16 0 7.499 5.262 14.312 12.25 16v-5.293c-0.692 0.152-1.33 0.156-2.034-0.052-0.946-0.279-1.714-0.909-2.284-1.869-0.364-0.613-1.008-1.278-1.68-1.23l-0.165-1.868c1.453-0.124 2.711 0.886 3.457 2.14 0.332 0.558 0.713 0.884 1.203 1.029 0.473 0.14 0.982 0.072 1.574-0.137 0.149-1.186 0.692-1.63 1.102-2.255v-0.001c-4.167-0.622-5.828-2.832-6.488-4.578-0.874-2.317-0.405-5.212 1.14-7.041 0.030-0.036 0.084-0.129 0.063-0.194-0.708-2.139 0.155-3.909 0.187-4.097 0.817 0.242 0.95-0.243 3.551 1.337l0.449 0.27c0.188 0.112 0.129 0.048 0.317 0.034 1.086-0.295 2.23-0.458 3.358-0.472 1.136 0.015 2.273 0.178 3.404 0.484l0.145 0.015c-0.013-0.002 0.040-0.009 0.127-0.062 3.248-1.968 3.132-1.324 4.003-1.608 0.032 0.188 0.883 1.987 0.182 4.099-0.095 0.291 2.816 2.956 1.203 7.235-0.659 1.746-2.32 3.957-6.487 4.578v0.001c0.534 0.814 1.176 1.247 1.173 2.927v6.608c6.988-1.688 12.25-8.501 12.25-16 0-8.788-7.212-16-16-16v0z"></path>
</symbol>

<symbol id="icon-telegram" viewBox="0 0 44 32">
<path d="M17.343 21.048l-0.675 8.86c0.966 0 1.384-0.387 1.885-0.852l4.527-4.038 9.381 6.412c1.72 0.895 2.933 0.424 3.397-1.477l6.157-26.929 0.002-0.002c0.546-2.374-0.92-3.302-2.596-2.72l-36.194 12.933c-2.47 0.895-2.433 2.18-0.42 2.762l9.253 2.686 21.494-12.552c1.011-0.625 1.931-0.279 1.175 0.346l-17.386 14.57z"></path>
</symbol>

<symbol id="icon-facebook" viewBox="0 0 16 32">
<path d="M14.143 15.972h-4.034v14.865h-6.112v-14.865h-2.907v-5.224h2.907v-3.381c0-2.418 1.142-6.203 6.166-6.203l4.527 0.019v5.071h-3.285c-0.539 0-1.296 0.271-1.296 1.424v3.075h4.567l-0.534 5.219z"></path>
</symbol>

<symbol id="icon-menu_toggle" viewBox="0 0 32 32">
<path d="M6.4 11.733v-2.133h19.2v2.133h-19.2zM6.4 17.067h19.2v-2.133h-19.2v2.133zM6.4 22.4h19.2v-2.133h-19.2v2.133z"></path>
</symbol>
<symbol id="arrow" viewBox="0 0 8 10">
<path d="M1.61633 1L6.04401 5L1.61633 9" stroke="#D41443" stroke-width="2" stroke-linecap="round" stroke-linejoin="round"/>
</symbol>

<symbol id="home-icon" viewBox="0 0 13 12" fill="none" >
<path d="M12.2399 5.77539C12.4646 5.53163 12.4429 5.15801 12.1914 4.94111L6.65187 0.159738C6.40043 -0.0571627 5.99731 -0.052619 5.75117 0.169981L0.19278 5.19603C-0.053367 5.41863 -0.065448 5.79177 0.166032 6.02912L0.305389 6.17228C0.536586 6.40963 0.910291 6.43793 1.13955 6.2353L1.55495 5.86834V11.2407C1.55495 11.5703 1.82571 11.8372 2.15961 11.8372H4.32629C4.66019 11.8372 4.93095 11.5703 4.93095 11.2407V7.48221H7.69456V11.2407C7.68976 11.5701 7.92867 11.8369 8.26258 11.8369H10.5587C10.8926 11.8369 11.1634 11.5701 11.1634 11.2405V5.94398C11.1634 5.94398 11.2781 6.04315 11.4197 6.16587C11.561 6.28835 11.8577 6.19014 12.0824 5.94614L12.2399 5.77539Z" fill="#D31342"/>
</symbol>

<svg id="notes-icon" viewBox="0 0 54 40" fill="none">
<path d="M40.0179 3.99072e-06C42.4286 4.20147e-06 44.7054 0.650411 46.8482 1.95122C48.9911 3.25204 50.7321 5.12196 52.0714 7.56098C53.3571 10 54 12.8726 54 16.1789C54 19.4851 53.1964 22.71 51.5893 25.8537C51.0536 26.9919 50.0893 28.4553 48.6964 30.2439C47.25 32.0325 45.9107 33.5772 44.6786 34.878L39.6161 40L36 33.9837C38.5179 32.4119 40.7411 30.4607 42.6696 28.1301C44.5982 25.8537 45.5625 23.7669 45.5625 21.8699C45.5625 20.8943 45.3482 20.1084 44.9196 19.5122C43.0446 20.8672 40.9554 21.5447 38.6518 21.5447C36.9911 21.5447 35.4107 21.0298 33.9107 20C32.3571 19.0244 31.125 17.7236 30.2143 16.0976C29.25 14.5257 28.7679 12.8997 28.7679 11.2195C28.7679 9.3225 29.3304 7.50678 30.4554 5.77236C31.5268 4.03794 32.9464 2.62873 34.7143 1.54472C36.4286 0.514909 38.1964 3.83149e-06 40.0179 3.99072e-06ZM11.1696 1.46873e-06C13.5804 1.67948e-06 15.8571 0.650408 18 1.95122C20.1429 3.25203 21.8839 5.12195 23.2232 7.56098C24.5089 10 25.1518 12.8726 25.1518 16.1789C25.1518 18.5095 24.8571 20.5962 24.2679 22.439C23.6786 24.336 22.6607 26.3144 21.2143 28.374C19.8214 30.3252 18.5089 31.9512 17.2768 33.252C16.0446 34.607 13.9018 36.8564 10.8482 40L7.23214 33.9837C9.75 32.4119 11.9732 30.4607 13.9018 28.1301C15.8304 25.8537 16.7946 23.7669 16.7946 21.8699C16.7946 20.8943 16.5804 20.1084 16.1518 19.5122C14.2768 20.8672 12.1875 21.5447 9.88393 21.5447C8.22321 21.5447 6.64286 21.0298 5.14286 20C3.58928 19.0244 2.35714 17.7236 1.44643 16.0976C0.482141 14.5257 -1.45297e-06 12.8997 -1.30608e-06 11.2195C-1.14024e-06 9.32249 0.535713 7.50677 1.60714 5.77236C2.67857 4.03794 4.09821 2.62873 5.86607 1.54472C7.58036 0.514906 9.34821 1.30949e-06 11.1696 1.46873e-06Z" fill="#E1E1E1"/>
</svg>
</defs>
</svg>
